# Blender 3.5.0
# www.blender.org
mtllib float_Body.mtl
o 円柱
v -0.402517 1.433612 -0.409288
v 0.416059 1.433612 -0.409288
v -0.402517 1.353764 -0.401424
v 0.416059 1.353764 -0.401424
v -0.402517 1.276985 -0.378133
v 0.416059 1.276985 -0.378133
v -0.402517 1.206224 -0.340310
v 0.416059 1.206224 -0.340310
v -0.402517 1.144202 -0.289410
v 0.416059 1.144202 -0.289410
v -0.402517 1.093302 -0.227388
v 0.416059 1.093302 -0.227388
v -0.402517 1.055480 -0.156628
v 0.416059 1.055480 -0.156628
v -0.402517 1.032189 -0.079848
v 0.416059 1.032189 -0.079848
v -0.402517 1.024325 0.000000
v 0.416059 1.024325 0.000000
v -0.402517 1.032189 0.079848
v 0.416059 1.032189 0.079848
v -0.402517 1.055480 0.156628
v 0.416059 1.055480 0.156628
v -0.402517 1.093302 0.227388
v 0.416059 1.093302 0.227388
v -0.402517 1.144202 0.289410
v 0.416059 1.144202 0.289410
v -0.402517 1.206224 0.340310
v 0.416059 1.206224 0.340310
v -0.402517 1.276985 0.378133
v 0.416059 1.276985 0.378133
v -0.402517 1.353764 0.401424
v 0.416059 1.353764 0.401424
v -0.402517 1.433612 0.409288
v 0.416059 1.433612 0.409288
v -0.402517 1.513461 0.401424
v 0.416059 1.513461 0.401424
v -0.402517 1.590240 0.378133
v 0.416059 1.590240 0.378133
v -0.402517 1.661001 0.340310
v 0.416059 1.661001 0.340310
v -0.402517 1.723023 0.289410
v 0.416059 1.723023 0.289410
v -0.402517 1.773923 0.227388
v 0.416059 1.773923 0.227388
v -0.402517 1.811745 0.156628
v 0.416059 1.811745 0.156628
v -0.402517 1.835036 0.079848
v 0.416059 1.835036 0.079848
v -0.402517 1.842900 0.000000
v 0.416059 1.842900 0.000000
v -0.402517 1.835036 -0.079848
v 0.416059 1.835036 -0.079848
v -0.402517 1.811745 -0.156628
v 0.416059 1.811745 -0.156628
v -0.402517 1.773923 -0.227388
v 0.416059 1.773923 -0.227388
v -0.402517 1.723023 -0.289410
v 0.416059 1.723023 -0.289410
v -0.402517 1.661001 -0.340310
v 0.416059 1.661001 -0.340310
v -0.402517 1.590240 -0.378133
v 0.416059 1.590240 -0.378133
v -0.402517 1.513461 -0.401424
v 0.416059 1.513461 -0.401424
vn -0.0000 -0.0980 -0.9952
vn -0.0000 -0.2903 -0.9569
vn -0.0000 -0.4714 -0.8819
vn -0.0000 -0.6344 -0.7730
vn -0.0000 -0.7730 -0.6344
vn -0.0000 -0.8819 -0.4714
vn -0.0000 -0.9569 -0.2903
vn -0.0000 -0.9952 -0.0980
vn -0.0000 -0.9952 0.0980
vn -0.0000 -0.9569 0.2903
vn -0.0000 -0.8819 0.4714
vn -0.0000 -0.7730 0.6344
vn -0.0000 -0.6344 0.7730
vn -0.0000 -0.4714 0.8819
vn -0.0000 -0.2903 0.9569
vn -0.0000 -0.0980 0.9952
vn -0.0000 0.0980 0.9952
vn -0.0000 0.2903 0.9569
vn -0.0000 0.4714 0.8819
vn -0.0000 0.6344 0.7730
vn -0.0000 0.7730 0.6344
vn -0.0000 0.8819 0.4714
vn -0.0000 0.9569 0.2903
vn -0.0000 0.9952 0.0980
vn -0.0000 0.9952 -0.0980
vn -0.0000 0.9569 -0.2903
vn -0.0000 0.8819 -0.4714
vn -0.0000 0.7730 -0.6344
vn -0.0000 0.6344 -0.7730
vn -0.0000 0.4714 -0.8819
vn 1.0000 -0.0000 -0.0000
vn -0.0000 0.2903 -0.9569
vn -0.0000 0.0980 -0.9952
vn -1.0000 -0.0000 -0.0000
vt 0.531276 0.637572
vt 0.197542 0.390946
vt 0.059134 0.390946
vt 0.531276 0.707111
vt 0.524591 0.637572
vt 0.198872 0.384261
vt 0.524591 0.707111
vt 0.059134 0.397762
vt 0.518294 0.637572
vt 0.201480 0.377963
vt 0.518294 0.707111
vt 0.060464 0.404447
vt 0.053754 0.092058
vt 0.512626 0.637572
vt 0.205267 0.372296
vt 0.512626 0.707111
vt 0.053754 0.161597
vt 0.063072 0.410744
vt 0.048935 0.092058
vt 0.210087 0.367476
vt 0.048935 0.161597
vt 0.066859 0.416411
vt 0.043267 0.092058
vt 0.215754 0.363690
vt 0.043267 0.161597
vt 0.071679 0.421231
vt 0.036970 0.092058
vt 0.222051 0.361081
vt 0.036970 0.161597
vt 0.077346 0.425017
vt 0.030285 0.092058
vt 0.228736 0.359752
vt 0.030285 0.161597
vt 0.083643 0.427626
vt 0.023469 0.092058
vt 0.235552 0.359752
vt 0.023469 0.161597
vt 0.090328 0.428956
vt 0.016784 0.092058
vt 0.242237 0.361081
vt 0.016784 0.161597
vt 0.097144 0.428956
vt 0.010487 0.092058
vt 0.248535 0.363690
vt 0.010487 0.161597
vt 0.103829 0.427626
vt 0.004820 0.092058
vt 0.254202 0.367476
vt 0.004820 0.161597
vt 0.110127 0.425017
vt 0.610697 0.637572
vt 0.000000 0.092058
vt 0.259021 0.372296
vt 0.000000 0.161597
vt 0.610697 0.707111
vt 0.115794 0.421231
vt 0.605878 0.637572
vt 0.262808 0.377963
vt 0.605878 0.707111
vt 0.120614 0.416411
vt 0.600210 0.637572
vt 0.265417 0.384261
vt 0.600210 0.707111
vt 0.124400 0.410744
vt 0.593913 0.637572
vt 0.266746 0.390946
vt 0.593913 0.707111
vt 0.127009 0.404447
vt 0.587228 0.637572
vt 0.266746 0.397762
vt 0.587228 0.707111
vt 0.128338 0.397762
vt 0.580412 0.637572
vt 0.265417 0.404447
vt 0.580412 0.707111
vt 0.128338 0.390946
vt 0.573727 0.637572
vt 0.262808 0.410744
vt 0.573727 0.707111
vt 0.127009 0.384261
vt 0.567430 0.637572
vt 0.259021 0.416411
vt 0.567430 0.707111
vt 0.124400 0.377963
vt 0.703970 0.568034
vt 0.561763 0.637572
vt 0.254202 0.421231
vt 0.561763 0.707111
vt 0.703970 0.637572
vt 0.120614 0.372296
vt 0.698303 0.568034
vt 0.248535 0.425017
vt 0.698303 0.637572
vt 0.115794 0.367476
vt 0.692006 0.568034
vt 0.242237 0.427626
vt 0.692006 0.637572
vt 0.110127 0.363690
vt 0.685321 0.568034
vt 0.235552 0.428956
vt 0.685321 0.637572
vt 0.103829 0.361081
vt 0.678505 0.568034
vt 0.228736 0.428956
vt 0.678505 0.637572
vt 0.097144 0.359752
vt 0.671820 0.568034
vt 0.222051 0.427626
vt 0.671820 0.637572
vt 0.090328 0.359752
vt 0.665523 0.568034
vt 0.215754 0.425017
vt 0.665523 0.637572
vt 0.083643 0.361081
vt 0.561561 0.637572
vt 0.659855 0.568034
vt 0.210087 0.421231
vt 0.659855 0.637572
vt 0.561561 0.707111
vt 0.077346 0.363690
vt 0.556741 0.637572
vt 0.205267 0.416411
vt 0.556741 0.707111
vt 0.071679 0.367476
vt 0.551074 0.637572
vt 0.201480 0.410744
vt 0.551074 0.707111
vt 0.066859 0.372296
vt 0.544777 0.637572
vt 0.198872 0.404447
vt 0.063072 0.377963
vt 0.544777 0.707111
vt 0.538092 0.637572
vt 0.197542 0.397762
vt 0.060464 0.384261
vt 0.538092 0.707111
s 0
usemtl マテリアル.003
f 2/4/1 3/5/1 1/1/1
f 4/7/2 5/9/2 3/5/2
f 6/11/3 7/14/3 5/9/3
f 8/17/4 9/19/4 7/13/4
f 10/21/5 11/23/5 9/19/5
f 12/25/6 13/27/6 11/23/6
f 14/29/7 15/31/7 13/27/7
f 16/33/8 17/35/8 15/31/8
f 18/37/9 19/39/9 17/35/9
f 20/41/10 21/43/10 19/39/10
f 22/45/11 23/47/11 21/43/11
f 24/49/12 25/52/12 23/47/12
f 26/55/13 27/57/13 25/51/13
f 28/59/14 29/61/14 27/57/14
f 30/63/15 31/65/15 29/61/15
f 32/67/16 33/69/16 31/65/16
f 34/71/17 35/73/17 33/69/17
f 36/75/18 37/77/18 35/73/18
f 38/79/19 39/81/19 37/77/19
f 40/83/20 41/86/20 39/81/20
f 42/89/21 43/91/21 41/85/21
f 44/93/22 45/95/22 43/91/22
f 46/97/23 47/99/23 45/95/23
f 48/101/24 49/103/24 47/99/24
f 50/105/25 51/107/25 49/103/25
f 52/109/26 53/111/26 51/107/26
f 54/113/27 55/116/27 53/111/27
f 56/119/28 57/121/28 55/115/28
f 58/123/29 59/125/29 57/121/29
f 60/127/30 61/129/30 59/125/30
f 38/80/31 22/46/31 6/12/31
f 62/132/32 63/133/32 61/129/32
f 64/136/33 1/1/33 63/133/33
f 31/66/34 47/100/34 63/134/34
f 2/4/1 4/7/1 3/5/1
f 4/7/2 6/11/2 5/9/2
f 6/11/3 8/16/3 7/14/3
f 8/17/4 10/21/4 9/19/4
f 10/21/5 12/25/5 11/23/5
f 12/25/6 14/29/6 13/27/6
f 14/29/7 16/33/7 15/31/7
f 16/33/8 18/37/8 17/35/8
f 18/37/9 20/41/9 19/39/9
f 20/41/10 22/45/10 21/43/10
f 22/45/11 24/49/11 23/47/11
f 24/49/12 26/54/12 25/52/12
f 26/55/13 28/59/13 27/57/13
f 28/59/14 30/63/14 29/61/14
f 30/63/15 32/67/15 31/65/15
f 32/67/16 34/71/16 33/69/16
f 34/71/17 36/75/17 35/73/17
f 36/75/18 38/79/18 37/77/18
f 38/79/19 40/83/19 39/81/19
f 40/83/20 42/88/20 41/86/20
f 42/89/21 44/93/21 43/91/21
f 44/93/22 46/97/22 45/95/22
f 46/97/23 48/101/23 47/99/23
f 48/101/24 50/105/24 49/103/24
f 50/105/25 52/109/25 51/107/25
f 52/109/26 54/113/26 53/111/26
f 54/113/27 56/118/27 55/116/27
f 56/119/28 58/123/28 57/121/28
f 58/123/29 60/127/29 59/125/29
f 60/127/30 62/132/30 61/129/30
f 6/12/31 4/8/31 2/3/31
f 2/3/31 64/135/31 6/12/31
f 64/135/31 62/131/31 6/12/31
f 62/131/31 60/128/31 58/124/31
f 58/124/31 56/120/31 54/114/31
f 54/114/31 52/110/31 50/106/31
f 50/106/31 48/102/31 54/114/31
f 48/102/31 46/98/31 54/114/31
f 46/98/31 44/94/31 42/90/31
f 42/90/31 40/84/31 38/80/31
f 38/80/31 36/76/31 30/64/31
f 36/76/31 34/72/31 30/64/31
f 34/72/31 32/68/31 30/64/31
f 30/64/31 28/60/31 26/56/31
f 26/56/31 24/50/31 22/46/31
f 22/46/31 20/42/31 14/30/31
f 20/42/31 18/38/31 14/30/31
f 18/38/31 16/34/31 14/30/31
f 14/30/31 12/26/31 10/22/31
f 10/22/31 8/18/31 6/12/31
f 62/131/31 58/124/31 6/12/31
f 58/124/31 54/114/31 6/12/31
f 46/98/31 42/90/31 54/114/31
f 42/90/31 38/80/31 54/114/31
f 30/64/31 26/56/31 38/80/31
f 26/56/31 22/46/31 38/80/31
f 14/30/31 10/22/31 22/46/31
f 10/22/31 6/12/31 22/46/31
f 6/12/31 54/114/31 38/80/31
f 62/132/32 64/136/32 63/133/32
f 64/136/33 2/4/33 1/1/33
f 63/134/34 1/2/34 3/6/34
f 3/6/34 5/10/34 7/15/34
f 7/15/34 9/20/34 11/24/34
f 11/24/34 13/28/34 15/32/34
f 15/32/34 17/36/34 19/40/34
f 19/40/34 21/44/34 23/48/34
f 23/48/34 25/53/34 27/58/34
f 27/58/34 29/62/34 31/66/34
f 31/66/34 33/70/34 35/74/34
f 35/74/34 37/78/34 39/82/34
f 39/82/34 41/87/34 43/92/34
f 43/92/34 45/96/34 47/100/34
f 47/100/34 49/104/34 51/108/34
f 51/108/34 53/112/34 55/117/34
f 55/117/34 57/122/34 59/126/34
f 59/126/34 61/130/34 63/134/34
f 63/134/34 3/6/34 15/32/34
f 3/6/34 7/15/34 15/32/34
f 7/15/34 11/24/34 15/32/34
f 15/32/34 19/40/34 31/66/34
f 19/40/34 23/48/34 31/66/34
f 23/48/34 27/58/34 31/66/34
f 31/66/34 35/74/34 47/100/34
f 35/74/34 39/82/34 47/100/34
f 39/82/34 43/92/34 47/100/34
f 47/100/34 51/108/34 63/134/34
f 51/108/34 55/117/34 63/134/34
f 55/117/34 59/126/34 63/134/34
f 63/134/34 15/32/34 31/66/34
